<svg width="28" height="29" viewBox="0 0 28 29" fill="none" xmlns="http://www.w3.org/2000/svg">
<path d="M9.33332 26.1667C9.97766 26.1667 10.5 25.6443 10.5 25C10.5 24.3557 9.97766 23.8333 9.33332 23.8333C8.68899 23.8333 8.16666 24.3557 8.16666 25C8.16666 25.6443 8.68899 26.1667 9.33332 26.1667Z" stroke="white" stroke-width="2" stroke-linecap="round" stroke-linejoin="round"/>
<path d="M22.1667 26.1667C22.811 26.1667 23.3333 25.6443 23.3333 25C23.3333 24.3557 22.811 23.8333 22.1667 23.8333C21.5223 23.8333 21 24.3557 21 25C21 25.6443 21.5223 26.1667 22.1667 26.1667Z" stroke="white" stroke-width="2" stroke-linecap="round" stroke-linejoin="round"/>
<path d="M2.39166 2.89166H4.725L7.82833 17.3817C7.94217 17.9123 8.23744 18.3867 8.66333 18.7232C9.08921 19.0596 9.61905 19.2371 10.1617 19.225H21.5717C22.1027 19.2241 22.6176 19.0422 23.0312 18.7091C23.4448 18.3761 23.7325 17.9119 23.8467 17.3933L25.7717 8.725H5.97333" stroke="white" stroke-width="2" stroke-linecap="round" stroke-linejoin="round"/>
</svg>
