<svg width="28" height="29" viewBox="0 0 28 29" fill="none" xmlns="http://www.w3.org/2000/svg">
<path d="M21 23.8333C21 21.9768 20.2625 20.1964 18.9497 18.8836C17.637 17.5708 15.8565 16.8333 14 16.8333C12.1435 16.8333 10.363 17.5708 9.05025 18.8836C7.7375 20.1964 7 21.9768 7 23.8333" stroke="white" stroke-width="2" stroke-linecap="round" stroke-linejoin="round"/>
<path d="M13.9999 16.8333C16.5772 16.8333 18.6666 14.744 18.6666 12.1667C18.6666 9.58934 16.5772 7.5 13.9999 7.5C11.4226 7.5 9.33325 9.58934 9.33325 12.1667C9.33325 14.744 11.4226 16.8333 13.9999 16.8333Z" stroke="white" stroke-width="2" stroke-linecap="round" stroke-linejoin="round"/>
<path d="M13.9999 26.1667C20.4432 26.1667 25.6666 20.9433 25.6666 14.5C25.6666 8.05669 20.4432 2.83334 13.9999 2.83334C7.5566 2.83334 2.33325 8.05669 2.33325 14.5C2.33325 20.9433 7.5566 26.1667 13.9999 26.1667Z" stroke="white" stroke-width="2" stroke-linecap="round" stroke-linejoin="round"/>
</svg>
